<svg width="502" height="212" viewBox="0 0 502 212" fill="none" xmlns="http://www.w3.org/2000/svg">
<mask id="path-1-outside-1" maskUnits="userSpaceOnUse" x="0.5" y="0.484375" width="501" height="212" fill="black">
<rect fill="white" x="0.5" y="0.484375" width="501" height="212"/>
<path d="M50.1719 55.9688C50.1719 62.1562 47.9375 67.0312 43.4688 70.5938C39.0312 74.1562 32.8438 75.9375 24.9062 75.9375C17.5938 75.9375 11.125 74.5625 5.5 71.8125V58.3125C10.125 60.375 14.0312 61.8281 17.2188 62.6719C20.4375 63.5156 23.375 63.9375 26.0312 63.9375C29.2188 63.9375 31.6562 63.3281 33.3438 62.1094C35.0625 60.8906 35.9219 59.0781 35.9219 56.6719C35.9219 55.3281 35.5469 54.1406 34.7969 53.1094C34.0469 52.0469 32.9375 51.0312 31.4688 50.0625C30.0312 49.0938 27.0781 47.5469 22.6094 45.4219C18.4219 43.4531 15.2812 41.5625 13.1875 39.75C11.0938 37.9375 9.42188 35.8281 8.17188 33.4219C6.92188 31.0156 6.29688 28.2031 6.29688 24.9844C6.29688 18.9219 8.34375 14.1562 12.4375 10.6875C16.5625 7.21875 22.25 5.48438 29.5 5.48438C33.0625 5.48438 36.4531 5.90625 39.6719 6.75C42.9219 7.59375 46.3125 8.78125 49.8438 10.3125L45.1562 21.6094C41.5 20.1094 38.4688 19.0625 36.0625 18.4688C33.6875 17.875 31.3438 17.5781 29.0312 17.5781C26.2812 17.5781 24.1719 18.2188 22.7031 19.5C21.2344 20.7812 20.5 22.4531 20.5 24.5156C20.5 25.7969 20.7969 26.9219 21.3906 27.8906C21.9844 28.8281 22.9219 29.75 24.2031 30.6562C25.5156 31.5312 28.5938 33.125 33.4375 35.4375C39.8438 38.5 44.2344 41.5781 46.6094 44.6719C48.9844 47.7344 50.1719 51.5 50.1719 55.9688Z"/>
<path d="M91.6094 75L75.1094 21.2344H74.6875C75.2812 32.1719 75.5781 39.4688 75.5781 43.125V75H62.5938V6.46875H82.375L98.5938 58.875H98.875L116.078 6.46875H135.859V75H122.312V42.5625C122.312 41.0312 122.328 39.2656 122.359 37.2656C122.422 35.2656 122.641 29.9531 123.016 21.3281H122.594L104.922 75H91.6094Z"/>
<path d="M195.109 75L190.141 58.6875H165.156L160.188 75H144.531L168.719 6.1875H186.484L210.766 75H195.109ZM186.672 46.5C182.078 31.7188 179.484 23.3594 178.891 21.4219C178.328 19.4844 177.922 17.9531 177.672 16.8281C176.641 20.8281 173.688 30.7188 168.812 46.5H186.672Z"/>
<path d="M233.969 36.8906H238.656C243.25 36.8906 246.641 36.125 248.828 34.5938C251.016 33.0625 252.109 30.6562 252.109 27.375C252.109 24.125 250.984 21.8125 248.734 20.4375C246.516 19.0625 243.062 18.375 238.375 18.375H233.969V36.8906ZM233.969 48.7031V75H219.438V6.46875H239.406C248.719 6.46875 255.609 8.17188 260.078 11.5781C264.547 14.9531 266.781 20.0938 266.781 27C266.781 31.0312 265.672 34.625 263.453 37.7812C261.234 40.9062 258.094 43.3594 254.031 45.1406C264.344 60.5469 271.062 70.5 274.188 75H258.062L241.703 48.7031H233.969Z"/>
<path d="M309.25 75H294.719V18.5625H276.109V6.46875H327.859V18.5625H309.25V75Z"/>
<path d="M338.406 6.46875H359.734C369.453 6.46875 376.5 7.85938 380.875 10.6406C385.281 13.3906 387.484 17.7812 387.484 23.8125C387.484 27.9062 386.516 31.2656 384.578 33.8906C382.672 36.5156 380.125 38.0938 376.938 38.625V39.0938C381.281 40.0625 384.406 41.875 386.312 44.5312C388.25 47.1875 389.219 50.7188 389.219 55.125C389.219 61.375 386.953 66.25 382.422 69.75C377.922 73.25 371.797 75 364.047 75H338.406V6.46875ZM352.938 33.6094H361.375C365.312 33.6094 368.156 33 369.906 31.7812C371.688 30.5625 372.578 28.5469 372.578 25.7344C372.578 23.1094 371.609 21.2344 369.672 20.1094C367.766 18.9531 364.734 18.375 360.578 18.375H352.938V33.6094ZM352.938 45.1406V63H362.406C366.406 63 369.359 62.2344 371.266 60.7031C373.172 59.1719 374.125 56.8281 374.125 53.6719C374.125 47.9844 370.062 45.1406 361.938 45.1406H352.938Z"/>
<path d="M442.375 75H402.906V6.46875H442.375V18.375H417.438V33.4219H440.641V45.3281H417.438V63H442.375V75Z"/>
<path d="M496.188 75H456.719V6.46875H496.188V18.375H471.25V33.4219H494.453V45.3281H471.25V63H496.188V75Z"/>
<path d="M127.75 137.469H149.078C158.797 137.469 165.844 138.859 170.219 141.641C174.625 144.391 176.828 148.781 176.828 154.812C176.828 158.906 175.859 162.266 173.922 164.891C172.016 167.516 169.469 169.094 166.281 169.625V170.094C170.625 171.062 173.75 172.875 175.656 175.531C177.594 178.188 178.562 181.719 178.562 186.125C178.562 192.375 176.297 197.25 171.766 200.75C167.266 204.25 161.141 206 153.391 206H127.75V137.469ZM142.281 164.609H150.719C154.656 164.609 157.5 164 159.25 162.781C161.031 161.562 161.922 159.547 161.922 156.734C161.922 154.109 160.953 152.234 159.016 151.109C157.109 149.953 154.078 149.375 149.922 149.375H142.281V164.609ZM142.281 176.141V194H151.75C155.75 194 158.703 193.234 160.609 191.703C162.516 190.172 163.469 187.828 163.469 184.672C163.469 178.984 159.406 176.141 151.281 176.141H142.281Z"/>
<path d="M192.25 206V137.469H206.781V194H234.578V206H192.25Z"/>
<path d="M308.734 171.641C308.734 182.984 305.922 191.703 300.297 197.797C294.672 203.891 286.609 206.938 276.109 206.938C265.609 206.938 257.547 203.891 251.922 197.797C246.297 191.703 243.484 182.953 243.484 171.547C243.484 160.141 246.297 151.438 251.922 145.438C257.578 139.406 265.672 136.391 276.203 136.391C286.734 136.391 294.781 139.422 300.344 145.484C305.938 151.547 308.734 160.266 308.734 171.641ZM258.719 171.641C258.719 179.297 260.172 185.062 263.078 188.938C265.984 192.812 270.328 194.75 276.109 194.75C287.703 194.75 293.5 187.047 293.5 171.641C293.5 156.203 287.734 148.484 276.203 148.484C270.422 148.484 266.062 150.438 263.125 154.344C260.188 158.219 258.719 163.984 258.719 171.641Z"/>
<path d="M348.953 167.516H376.141V203.047C371.734 204.484 367.578 205.484 363.672 206.047C359.797 206.641 355.828 206.938 351.766 206.938C341.422 206.938 333.516 203.906 328.047 197.844C322.609 191.75 319.891 183.016 319.891 171.641C319.891 160.578 323.047 151.953 329.359 145.766C335.703 139.578 344.484 136.484 355.703 136.484C362.734 136.484 369.516 137.891 376.047 140.703L371.219 152.328C366.219 149.828 361.016 148.578 355.609 148.578C349.328 148.578 344.297 150.688 340.516 154.906C336.734 159.125 334.844 164.797 334.844 171.922C334.844 179.359 336.359 185.047 339.391 188.984C342.453 192.891 346.891 194.844 352.703 194.844C355.734 194.844 358.812 194.531 361.938 193.906V179.609H348.953V167.516Z"/>
</mask>
<path d="M50.1719 55.9688C50.1719 62.1562 47.9375 67.0312 43.4688 70.5938C39.0312 74.1562 32.8438 75.9375 24.9062 75.9375C17.5938 75.9375 11.125 74.5625 5.5 71.8125V58.3125C10.125 60.375 14.0312 61.8281 17.2188 62.6719C20.4375 63.5156 23.375 63.9375 26.0312 63.9375C29.2188 63.9375 31.6562 63.3281 33.3438 62.1094C35.0625 60.8906 35.9219 59.0781 35.9219 56.6719C35.9219 55.3281 35.5469 54.1406 34.7969 53.1094C34.0469 52.0469 32.9375 51.0312 31.4688 50.0625C30.0312 49.0938 27.0781 47.5469 22.6094 45.4219C18.4219 43.4531 15.2812 41.5625 13.1875 39.75C11.0938 37.9375 9.42188 35.8281 8.17188 33.4219C6.92188 31.0156 6.29688 28.2031 6.29688 24.9844C6.29688 18.9219 8.34375 14.1562 12.4375 10.6875C16.5625 7.21875 22.25 5.48438 29.5 5.48438C33.0625 5.48438 36.4531 5.90625 39.6719 6.75C42.9219 7.59375 46.3125 8.78125 49.8438 10.3125L45.1562 21.6094C41.5 20.1094 38.4688 19.0625 36.0625 18.4688C33.6875 17.875 31.3438 17.5781 29.0312 17.5781C26.2812 17.5781 24.1719 18.2188 22.7031 19.5C21.2344 20.7812 20.5 22.4531 20.5 24.5156C20.5 25.7969 20.7969 26.9219 21.3906 27.8906C21.9844 28.8281 22.9219 29.75 24.2031 30.6562C25.5156 31.5312 28.5938 33.125 33.4375 35.4375C39.8438 38.5 44.2344 41.5781 46.6094 44.6719C48.9844 47.7344 50.1719 51.5 50.1719 55.9688Z" fill="white"/>
<path d="M91.6094 75L75.1094 21.2344H74.6875C75.2812 32.1719 75.5781 39.4688 75.5781 43.125V75H62.5938V6.46875H82.375L98.5938 58.875H98.875L116.078 6.46875H135.859V75H122.312V42.5625C122.312 41.0312 122.328 39.2656 122.359 37.2656C122.422 35.2656 122.641 29.9531 123.016 21.3281H122.594L104.922 75H91.6094Z" fill="white"/>
<path d="M195.109 75L190.141 58.6875H165.156L160.188 75H144.531L168.719 6.1875H186.484L210.766 75H195.109ZM186.672 46.5C182.078 31.7188 179.484 23.3594 178.891 21.4219C178.328 19.4844 177.922 17.9531 177.672 16.8281C176.641 20.8281 173.688 30.7188 168.812 46.5H186.672Z" fill="white"/>
<path d="M233.969 36.8906H238.656C243.25 36.8906 246.641 36.125 248.828 34.5938C251.016 33.0625 252.109 30.6562 252.109 27.375C252.109 24.125 250.984 21.8125 248.734 20.4375C246.516 19.0625 243.062 18.375 238.375 18.375H233.969V36.8906ZM233.969 48.7031V75H219.438V6.46875H239.406C248.719 6.46875 255.609 8.17188 260.078 11.5781C264.547 14.9531 266.781 20.0938 266.781 27C266.781 31.0312 265.672 34.625 263.453 37.7812C261.234 40.9062 258.094 43.3594 254.031 45.1406C264.344 60.5469 271.062 70.5 274.188 75H258.062L241.703 48.7031H233.969Z" fill="white"/>
<path d="M309.25 75H294.719V18.5625H276.109V6.46875H327.859V18.5625H309.25V75Z" fill="white"/>
<path d="M338.406 6.46875H359.734C369.453 6.46875 376.5 7.85938 380.875 10.6406C385.281 13.3906 387.484 17.7812 387.484 23.8125C387.484 27.9062 386.516 31.2656 384.578 33.8906C382.672 36.5156 380.125 38.0938 376.938 38.625V39.0938C381.281 40.0625 384.406 41.875 386.312 44.5312C388.25 47.1875 389.219 50.7188 389.219 55.125C389.219 61.375 386.953 66.25 382.422 69.75C377.922 73.25 371.797 75 364.047 75H338.406V6.46875ZM352.938 33.6094H361.375C365.312 33.6094 368.156 33 369.906 31.7812C371.688 30.5625 372.578 28.5469 372.578 25.7344C372.578 23.1094 371.609 21.2344 369.672 20.1094C367.766 18.9531 364.734 18.375 360.578 18.375H352.938V33.6094ZM352.938 45.1406V63H362.406C366.406 63 369.359 62.2344 371.266 60.7031C373.172 59.1719 374.125 56.8281 374.125 53.6719C374.125 47.9844 370.062 45.1406 361.938 45.1406H352.938Z" fill="white"/>
<path d="M442.375 75H402.906V6.46875H442.375V18.375H417.438V33.4219H440.641V45.3281H417.438V63H442.375V75Z" fill="white"/>
<path d="M496.188 75H456.719V6.46875H496.188V18.375H471.25V33.4219H494.453V45.3281H471.25V63H496.188V75Z" fill="white"/>
<path d="M127.75 137.469H149.078C158.797 137.469 165.844 138.859 170.219 141.641C174.625 144.391 176.828 148.781 176.828 154.812C176.828 158.906 175.859 162.266 173.922 164.891C172.016 167.516 169.469 169.094 166.281 169.625V170.094C170.625 171.062 173.75 172.875 175.656 175.531C177.594 178.188 178.562 181.719 178.562 186.125C178.562 192.375 176.297 197.25 171.766 200.75C167.266 204.25 161.141 206 153.391 206H127.75V137.469ZM142.281 164.609H150.719C154.656 164.609 157.5 164 159.25 162.781C161.031 161.562 161.922 159.547 161.922 156.734C161.922 154.109 160.953 152.234 159.016 151.109C157.109 149.953 154.078 149.375 149.922 149.375H142.281V164.609ZM142.281 176.141V194H151.75C155.75 194 158.703 193.234 160.609 191.703C162.516 190.172 163.469 187.828 163.469 184.672C163.469 178.984 159.406 176.141 151.281 176.141H142.281Z" fill="white"/>
<path d="M192.25 206V137.469H206.781V194H234.578V206H192.25Z" fill="white"/>
<path d="M308.734 171.641C308.734 182.984 305.922 191.703 300.297 197.797C294.672 203.891 286.609 206.938 276.109 206.938C265.609 206.938 257.547 203.891 251.922 197.797C246.297 191.703 243.484 182.953 243.484 171.547C243.484 160.141 246.297 151.438 251.922 145.438C257.578 139.406 265.672 136.391 276.203 136.391C286.734 136.391 294.781 139.422 300.344 145.484C305.938 151.547 308.734 160.266 308.734 171.641ZM258.719 171.641C258.719 179.297 260.172 185.062 263.078 188.938C265.984 192.812 270.328 194.75 276.109 194.75C287.703 194.75 293.5 187.047 293.5 171.641C293.5 156.203 287.734 148.484 276.203 148.484C270.422 148.484 266.062 150.438 263.125 154.344C260.188 158.219 258.719 163.984 258.719 171.641Z" fill="white"/>
<path d="M348.953 167.516H376.141V203.047C371.734 204.484 367.578 205.484 363.672 206.047C359.797 206.641 355.828 206.938 351.766 206.938C341.422 206.938 333.516 203.906 328.047 197.844C322.609 191.75 319.891 183.016 319.891 171.641C319.891 160.578 323.047 151.953 329.359 145.766C335.703 139.578 344.484 136.484 355.703 136.484C362.734 136.484 369.516 137.891 376.047 140.703L371.219 152.328C366.219 149.828 361.016 148.578 355.609 148.578C349.328 148.578 344.297 150.688 340.516 154.906C336.734 159.125 334.844 164.797 334.844 171.922C334.844 179.359 336.359 185.047 339.391 188.984C342.453 192.891 346.891 194.844 352.703 194.844C355.734 194.844 358.812 194.531 361.938 193.906V179.609H348.953V167.516Z" fill="white"/>
<path d="M50.1719 55.9688C50.1719 62.1562 47.9375 67.0312 43.4688 70.5938C39.0312 74.1562 32.8438 75.9375 24.9062 75.9375C17.5938 75.9375 11.125 74.5625 5.5 71.8125V58.3125C10.125 60.375 14.0312 61.8281 17.2188 62.6719C20.4375 63.5156 23.375 63.9375 26.0312 63.9375C29.2188 63.9375 31.6562 63.3281 33.3438 62.1094C35.0625 60.8906 35.9219 59.0781 35.9219 56.6719C35.9219 55.3281 35.5469 54.1406 34.7969 53.1094C34.0469 52.0469 32.9375 51.0312 31.4688 50.0625C30.0312 49.0938 27.0781 47.5469 22.6094 45.4219C18.4219 43.4531 15.2812 41.5625 13.1875 39.75C11.0938 37.9375 9.42188 35.8281 8.17188 33.4219C6.92188 31.0156 6.29688 28.2031 6.29688 24.9844C6.29688 18.9219 8.34375 14.1562 12.4375 10.6875C16.5625 7.21875 22.25 5.48438 29.5 5.48438C33.0625 5.48438 36.4531 5.90625 39.6719 6.75C42.9219 7.59375 46.3125 8.78125 49.8438 10.3125L45.1562 21.6094C41.5 20.1094 38.4688 19.0625 36.0625 18.4688C33.6875 17.875 31.3438 17.5781 29.0312 17.5781C26.2812 17.5781 24.1719 18.2188 22.7031 19.5C21.2344 20.7812 20.5 22.4531 20.5 24.5156C20.5 25.7969 20.7969 26.9219 21.3906 27.8906C21.9844 28.8281 22.9219 29.75 24.2031 30.6562C25.5156 31.5312 28.5938 33.125 33.4375 35.4375C39.8438 38.5 44.2344 41.5781 46.6094 44.6719C48.9844 47.7344 50.1719 51.5 50.1719 55.9688Z" stroke="black" stroke-width="10" mask="url(#path-1-outside-1)"/>
<path d="M91.6094 75L75.1094 21.2344H74.6875C75.2812 32.1719 75.5781 39.4688 75.5781 43.125V75H62.5938V6.46875H82.375L98.5938 58.875H98.875L116.078 6.46875H135.859V75H122.312V42.5625C122.312 41.0312 122.328 39.2656 122.359 37.2656C122.422 35.2656 122.641 29.9531 123.016 21.3281H122.594L104.922 75H91.6094Z" stroke="black" stroke-width="10" mask="url(#path-1-outside-1)"/>
<path d="M195.109 75L190.141 58.6875H165.156L160.188 75H144.531L168.719 6.1875H186.484L210.766 75H195.109ZM186.672 46.5C182.078 31.7188 179.484 23.3594 178.891 21.4219C178.328 19.4844 177.922 17.9531 177.672 16.8281C176.641 20.8281 173.688 30.7188 168.812 46.5H186.672Z" stroke="black" stroke-width="10" mask="url(#path-1-outside-1)"/>
<path d="M233.969 36.8906H238.656C243.25 36.8906 246.641 36.125 248.828 34.5938C251.016 33.0625 252.109 30.6562 252.109 27.375C252.109 24.125 250.984 21.8125 248.734 20.4375C246.516 19.0625 243.062 18.375 238.375 18.375H233.969V36.8906ZM233.969 48.7031V75H219.438V6.46875H239.406C248.719 6.46875 255.609 8.17188 260.078 11.5781C264.547 14.9531 266.781 20.0938 266.781 27C266.781 31.0312 265.672 34.625 263.453 37.7812C261.234 40.9062 258.094 43.3594 254.031 45.1406C264.344 60.5469 271.062 70.5 274.188 75H258.062L241.703 48.7031H233.969Z" stroke="black" stroke-width="10" mask="url(#path-1-outside-1)"/>
<path d="M309.25 75H294.719V18.5625H276.109V6.46875H327.859V18.5625H309.25V75Z" stroke="black" stroke-width="10" mask="url(#path-1-outside-1)"/>
<path d="M338.406 6.46875H359.734C369.453 6.46875 376.5 7.85938 380.875 10.6406C385.281 13.3906 387.484 17.7812 387.484 23.8125C387.484 27.9062 386.516 31.2656 384.578 33.8906C382.672 36.5156 380.125 38.0938 376.938 38.625V39.0938C381.281 40.0625 384.406 41.875 386.312 44.5312C388.25 47.1875 389.219 50.7188 389.219 55.125C389.219 61.375 386.953 66.25 382.422 69.75C377.922 73.25 371.797 75 364.047 75H338.406V6.46875ZM352.938 33.6094H361.375C365.312 33.6094 368.156 33 369.906 31.7812C371.688 30.5625 372.578 28.5469 372.578 25.7344C372.578 23.1094 371.609 21.2344 369.672 20.1094C367.766 18.9531 364.734 18.375 360.578 18.375H352.938V33.6094ZM352.938 45.1406V63H362.406C366.406 63 369.359 62.2344 371.266 60.7031C373.172 59.1719 374.125 56.8281 374.125 53.6719C374.125 47.9844 370.062 45.1406 361.938 45.1406H352.938Z" stroke="black" stroke-width="10" mask="url(#path-1-outside-1)"/>
<path d="M442.375 75H402.906V6.46875H442.375V18.375H417.438V33.4219H440.641V45.3281H417.438V63H442.375V75Z" stroke="black" stroke-width="10" mask="url(#path-1-outside-1)"/>
<path d="M496.188 75H456.719V6.46875H496.188V18.375H471.25V33.4219H494.453V45.3281H471.25V63H496.188V75Z" stroke="black" stroke-width="10" mask="url(#path-1-outside-1)"/>
<path d="M127.75 137.469H149.078C158.797 137.469 165.844 138.859 170.219 141.641C174.625 144.391 176.828 148.781 176.828 154.812C176.828 158.906 175.859 162.266 173.922 164.891C172.016 167.516 169.469 169.094 166.281 169.625V170.094C170.625 171.062 173.75 172.875 175.656 175.531C177.594 178.188 178.562 181.719 178.562 186.125C178.562 192.375 176.297 197.25 171.766 200.75C167.266 204.25 161.141 206 153.391 206H127.75V137.469ZM142.281 164.609H150.719C154.656 164.609 157.5 164 159.25 162.781C161.031 161.562 161.922 159.547 161.922 156.734C161.922 154.109 160.953 152.234 159.016 151.109C157.109 149.953 154.078 149.375 149.922 149.375H142.281V164.609ZM142.281 176.141V194H151.75C155.75 194 158.703 193.234 160.609 191.703C162.516 190.172 163.469 187.828 163.469 184.672C163.469 178.984 159.406 176.141 151.281 176.141H142.281Z" stroke="black" stroke-width="10" mask="url(#path-1-outside-1)"/>
<path d="M192.25 206V137.469H206.781V194H234.578V206H192.25Z" stroke="black" stroke-width="10" mask="url(#path-1-outside-1)"/>
<path d="M308.734 171.641C308.734 182.984 305.922 191.703 300.297 197.797C294.672 203.891 286.609 206.938 276.109 206.938C265.609 206.938 257.547 203.891 251.922 197.797C246.297 191.703 243.484 182.953 243.484 171.547C243.484 160.141 246.297 151.438 251.922 145.438C257.578 139.406 265.672 136.391 276.203 136.391C286.734 136.391 294.781 139.422 300.344 145.484C305.938 151.547 308.734 160.266 308.734 171.641ZM258.719 171.641C258.719 179.297 260.172 185.062 263.078 188.938C265.984 192.812 270.328 194.75 276.109 194.75C287.703 194.75 293.5 187.047 293.5 171.641C293.5 156.203 287.734 148.484 276.203 148.484C270.422 148.484 266.062 150.438 263.125 154.344C260.188 158.219 258.719 163.984 258.719 171.641Z" stroke="black" stroke-width="10" mask="url(#path-1-outside-1)"/>
<path d="M348.953 167.516H376.141V203.047C371.734 204.484 367.578 205.484 363.672 206.047C359.797 206.641 355.828 206.938 351.766 206.938C341.422 206.938 333.516 203.906 328.047 197.844C322.609 191.75 319.891 183.016 319.891 171.641C319.891 160.578 323.047 151.953 329.359 145.766C335.703 139.578 344.484 136.484 355.703 136.484C362.734 136.484 369.516 137.891 376.047 140.703L371.219 152.328C366.219 149.828 361.016 148.578 355.609 148.578C349.328 148.578 344.297 150.688 340.516 154.906C336.734 159.125 334.844 164.797 334.844 171.922C334.844 179.359 336.359 185.047 339.391 188.984C342.453 192.891 346.891 194.844 352.703 194.844C355.734 194.844 358.812 194.531 361.938 193.906V179.609H348.953V167.516Z" stroke="black" stroke-width="10" mask="url(#path-1-outside-1)"/>
</svg>

